<?xml version="1.0" encoding="UTF-8" standalone="no"?>
<svg width="200px" height="57px" viewBox="0 0 200 57" version="1.1" xmlns="http://www.w3.org/2000/svg" xmlns:xlink="http://www.w3.org/1999/xlink">
    <!-- Generator: Sketch 40.3 (33839) - http://www.bohemiancoding.com/sketch -->
    <title>Logo</title>
    <desc>Created with Sketch.</desc>
    <defs>
        <polyline id="path-1" points="4.45699033e-14 0 199 0 199 56 4.45699033e-14 56"></polyline>
    </defs>
    <g id="Try-It-On-Design-+-User-Journey" stroke="none" stroke-width="1" fill="none" fill-rule="evenodd">
        <g id="01-Height---Weight---Age" transform="translate(-540.000000, -304.000000)">
            <g id="Modal" transform="translate(160.000000, 244.000000)">
                <g id="Logo" transform="translate(380.000000, 60.000000)">
                    <path d="M185.852228,57 C179.321838,57 174.318975,55.2987567 170.985984,51.9434787 C167.537655,48.4742089 166,43.5823427 166,36.082479 L166,0 L169.590674,0 L169.590674,4.99376812 L195.933345,4.99376812 L195.933345,8.18899674 L169.590674,8.18899674 L169.590674,36.082479 C169.590674,42.8143364 170.860519,46.7844799 173.974649,49.7856919 C176.660621,52.412688 180.770598,53.8041957 185.852228,53.8041957 C189.115454,53.8041957 193.788056,53.2014201 198.006619,50.4281919 L200,52.9078045 C196.058248,55.5883422 191.191541,57 185.852228,57" id="Fill-1" fill="#111111"></path>
                    <path d="M79.4841842,7 C67.5941525,7 59.4067436,14.9769623 58.1184747,27.8187722 L58,29 L101,29 L100.910281,27.8440548 C99.9498308,15.3767806 91.3391336,7 79.4841842,7 M78.9701803,57 C71.7600563,57 65.550171,54.4923472 61.0107578,49.748015 C56.4247691,44.9548847 54,38.3395726 54,30.6202732 C54,14.6971371 64.0347613,4 78.9701803,4 C93.7073692,4 104,14.9210347 104,30.5576967 L104,31.8511357 L57.7277488,31.8511357 L57.810108,32.9757905 C58.7370753,45.6334666 67.0434289,53.8126171 78.9701803,53.8126171 C88.4011633,53.8126171 94.8564223,49.9810981 98.6830022,42.1062187 L102.448239,42.1062187 C98.5137398,51.4628408 89.8450056,57 78.9701803,57" id="Fill-2" fill="#111111"></path>
                    <g id="Group-6" transform="translate(0.000000, 1.000000)">
                        <mask id="mask-2" fill="white">
                            <use xlink:href="#path-1"></use>
                        </mask>
                        <g id="Clip-4"></g>
                        <polyline id="Fill-3" fill="#111111" mask="url(#mask-2)" points="156.407134 5 152.064557 5 133.418225 27.0846917 114.842311 5.10300643 110.513931 5.10300643 131.213148 29.6966404 110 54.8200217 110 55 114.394254 55 133.418225 32.3657521 152.458666 55 157 55 135.622735 29.741352 156.407134 5"></polyline>
                        <path d="M45,27.9181954 L45,27.9148076 L45,27.8718959 L45,27.8685082 L45,25.0103626 C45,24.883886 45,24.7483753 44.9994251,24.6089123 C44.9988501,23.2701799 44.9448064,22.0178356 44.837294,20.8422807 C44.8298199,20.7604096 44.8211959,20.6807971 44.8131468,20.5994907 C44.7815255,20.2816053 44.7476044,19.9682369 44.7079341,19.6616441 C44.7010349,19.6102629 44.6941357,19.5600111 44.6878114,19.5091946 C44.0772327,14.9170772 42.539862,11.5846443 39.9043695,9.04043177 C39.0028747,8.16921118 37.9777693,7.41543316 36.839977,6.77232217 C33.951514,5.08239136 30.0419701,4 24.745688,4 C8.46991184,4 3.51054044,14.5088514 3.51054044,14.5088514 C3.55366041,11.6546582 3.6146033,6.47024633 3.6146033,6.47024633 L0,6.47024633 L0,55 L3.6146033,55 L3.6146033,26.8561306 L3.63300115,25.1995129 C3.63300115,25.1995129 3.12016098,15.6398007 12.0304714,10.2588984 C12.1155615,10.2080819 12.1954772,10.1538777 12.2822921,10.1036258 C12.2822921,10.1036258 12.6192028,9.92125104 12.7830586,9.82413507 C15.7646608,8.21099363 19.71445,7.15005812 24.9451897,7.13029615 L25.0084323,7.1353778 C30.0316213,7.22345973 34.0986968,8.58195405 36.788808,11.0713977 C40.0153315,14.0159314 41.331353,17.9090396 41.331353,24.5112317 L41.331353,51.86801 L41.3307781,51.9521395 L41.3307781,55 L45,55 L45,27.9181954" id="Fill-5" fill="#111111" mask="url(#mask-2)"></path>
                    </g>
                </g>
            </g>
        </g>
    </g>
</svg>