<?xml version="1.0" encoding="UTF-8" standalone="no"?>
<svg width="474px" height="135px" viewBox="0 0 474 135" version="1.1" xmlns="http://www.w3.org/2000/svg" xmlns:xlink="http://www.w3.org/1999/xlink">
    <!-- Generator: Sketch 40.3 (33839) - http://www.bohemiancoding.com/sketch -->
    <title>next-logo</title>
    <desc>Created with Sketch.</desc>
    <defs>
        <polyline id="path-1" points="0.0808923077 0.3392 474.09903 0.3392 474.09903 134 0.0808923077 134"></polyline>
    </defs>
    <g id="Try-It-On-Design-+-User-Journey" stroke="none" stroke-width="1" fill="none" fill-rule="evenodd">
        <g id="Artboard" transform="translate(-204.000000, -200.000000)">
            <g id="Introduction" transform="translate(200.000000, 200.000000)">
                <g id="Group">
                    <g id="next-logo" transform="translate(4.000000, 0.000000)">
                        <path d="M440.711125,135 C425.345501,135 413.57406,130.970739 405.731727,123.024029 C397.618011,114.807337 394,103.221338 394,85.4585029 L394,0 L402.448644,0 L402.448644,11.8273455 L464.431401,11.8273455 L464.431401,19.3949923 L402.448644,19.3949923 L402.448644,85.4585029 C402.448644,101.402376 405.436514,110.805347 412.763879,117.913481 C419.083815,124.135314 428.754348,127.43099 440.711125,127.43099 C448.389304,127.43099 459.383661,126.003363 469.309692,119.435191 L474,125.307958 C464.72529,131.6566 453.274214,135 440.711125,135" id="Fill-1" fill="#111111"></path>
                        <path d="M188.429029,17.5147044 C160.481353,17.5147044 141.23674,35.8844333 138.208647,65.4571648 L137.930171,68.1773524 L239.002238,68.1773524 L238.791353,65.5153869 C236.533801,36.8051539 216.294244,17.5147044 188.429029,17.5147044 M188.429029,135 C171.268934,135 156.489407,129.085724 145.685604,117.896262 C134.77095,106.591709 129,90.9895579 129,72.7836632 C129,35.2290969 152.882732,10 188.429029,10 C223.503539,10 248,35.7571572 248,72.6360771 L248,75.6866409 L137.872042,75.6866409 L138.068057,78.3391285 C140.274239,108.192138 160.043361,127.482588 188.429029,127.482588 C210.874769,127.482588 226.238285,118.445986 235.345545,99.8731572 L244.306808,99.8731572 C234.942701,121.940662 214.311113,135 188.429029,135" id="Fill-2" fill="#111111"></path>
                        <g id="Group-6" transform="translate(0.000000, 1.000000)">
                            <mask id="mask-2" fill="white">
                                <use xlink:href="#path-1"></use>
                            </mask>
                            <g id="Clip-4"></g>
                            <polyline id="Fill-3" fill="#111111" mask="url(#mask-2)" points="369.587516 12.0518 359.277792 12.0518 315.009476 64.73015 270.908338 12.2975 260.632319 12.2975 309.774396 70.9604 259.412193 130.8869 259.412193 131.3162 269.844605 131.3162 315.009476 77.327 360.213446 131.3162 370.995043 131.3162 320.243209 71.06705 369.587516 12.0518"></polyline>
                            <path d="M105.524015,66.5648 L105.524015,66.5567 L105.524015,66.4541 L105.524015,66.446 L105.524015,59.6123 C105.524015,59.3099 105.524015,58.9859 105.522667,58.65245 C105.521319,55.4516 105.394588,52.4573 105.142473,49.6466 C105.124947,49.45085 105.104724,49.2605 105.085849,49.0661 C105.011697,48.30605 104.932153,47.5568 104.839127,46.82375 C104.822949,46.7009 104.80677,46.58075 104.79194,46.45925 C103.360146,35.4797 99.7550456,27.512 93.5748733,21.4289 C91.4608877,19.34585 89.0570379,17.5436 86.38894,16.00595 C79.6155574,11.9654 70.4477626,9.37745 58.0280969,9.37745 C19.8617579,9.37745 8.23214051,34.50365 8.23214051,34.50365 C8.3332559,27.6794 8.47616564,15.2837 8.47616564,15.2837 L0,15.2837 L0,131.3162 L8.47616564,131.3162 L8.47616564,64.02545 L8.51930821,60.06455 C8.51930821,60.06455 7.31670923,37.2077 28.2111923,24.3422 C28.4107267,24.2207 28.5981272,24.0911 28.8017062,23.97095 C28.8017062,23.97095 29.5917544,23.5349 29.9759928,23.3027 C36.9677846,19.44575 46.2299538,16.9091 58.4959241,16.86185 L58.6442267,16.874 C70.4234949,17.0846 79.9606979,20.3327 86.2689497,26.28485 C93.8350769,33.3251 96.9211185,42.63335 96.9211185,58.4189 L96.9211185,123.82775 L96.9197703,124.0289 L96.9197703,131.3162 L105.524015,131.3162 L105.524015,66.5648" id="Fill-5" fill="#111111" mask="url(#mask-2)"></path>
                        </g>
                    </g>
                </g>
            </g>
        </g>
    </g>
</svg>