<?xml version="1.0" encoding="UTF-8" standalone="no"?>
<svg width="18px" height="18px" viewBox="0 0 18 18" version="1.1" xmlns="http://www.w3.org/2000/svg" xmlns:xlink="http://www.w3.org/1999/xlink">
    <!-- Generator: Sketch 40.3 (33839) - http://www.bohemiancoding.com/sketch -->
    <title>ni-danger-16</title>
    <desc>Created with Sketch.</desc>
    <defs></defs>
    <g id="Size-Guide-Redesign-+-User-Journey" stroke="none" stroke-width="1" fill="none" fill-rule="evenodd">
        <g id="04-Recommend---Single-Size" transform="translate(-568.000000, -810.000000)" fill="#FF0006">
            <g id="Modal" transform="translate(160.000000, 244.000000)">
                <g id="Info" transform="translate(408.000000, 560.000000)">
                    <g id="ni-danger-16" transform="translate(0.000000, 6.000000)">
                        <path d="M9,0 C4.02975,0 0,4.02975 0,9 C0,13.97025 4.02975,18 9,18 C13.97025,18 18,13.97025 18,9 C18,4.02975 13.97025,0 9,0 L9,0 Z M9,14.833125 C8.321625,14.833125 7.770375,14.283 7.770375,13.6035 C7.770375,12.924 8.321625,12.375 9,12.375 C9.678375,12.375 10.229625,12.925125 10.229625,13.604625 C10.229625,14.284125 9.678375,14.833125 9,14.833125 L9,14.833125 Z M9.84375,10.6875 L8.15625,10.6875 L7.59375,3.375 L10.40625,3.375 L9.84375,10.6875 L9.84375,10.6875 Z" id="Shape"></path>
                    </g>
                </g>
            </g>
        </g>
    </g>
</svg>