<?xml version="1.0" encoding="UTF-8" standalone="no"?>
<svg width="28px" height="28px" viewBox="0 0 28 28" version="1.1" xmlns="http://www.w3.org/2000/svg" xmlns:xlink="http://www.w3.org/1999/xlink">
    <!-- Generator: Sketch 40.1 (33804) - http://www.bohemiancoding.com/sketch -->
    <title>Group</title>
    <desc>Created with Sketch.</desc>
    <defs></defs>
    <g id="Navigation-Types" stroke="none" stroke-width="1" fill="none" fill-rule="evenodd">
        <g id="Banded-w/-Grid-Navigation-Alternate-Copy-2" transform="translate(-66.000000, -124.000000)" fill="#000000">
            <g id="Group-5" transform="translate(-3.000000, 88.000000)">
                <g id="ni-customer-line-32" transform="translate(69.000000, 36.000000)">
                    <g id="Layer_1">
                        <g id="Group">
                            <path d="M13.5757576,0.845090909 C6.07769697,0.845090909 0,6.92278788 0,14.4208485 C0,18.0820606 1.456,21.3987879 3.81309091,23.8407273 L3.83006061,23.8789091 C3.83175758,23.8746667 3.83345455,23.8695758 3.83515152,23.8653333 C6.30254545,26.4099394 9.75163636,27.9974545 13.5757576,27.9974545 C21.0738182,27.9974545 27.1515152,21.9197576 27.1515152,14.421697 C27.1515152,6.92363636 21.0738182,0.845090909 13.5757576,0.845090909 L13.5757576,0.845090909 Z M13.5757576,1.69357576 C20.5935758,1.69357576 26.3030303,7.4030303 26.3030303,14.4208485 C26.3030303,17.3905455 25.2729697,20.1184242 23.5624242,22.286303 C23.1890909,21.2655758 22.3881212,19.4438788 22.0385455,19.2410909 C20.6385455,18.4307879 19.1104242,17.8215758 17.4957576,17.4355152 C16.5615758,18.1855758 15.1530909,18.6632727 13.5766061,18.6632727 C12.0001212,18.6632727 10.5916364,18.1855758 9.65745455,17.4355152 C8.04278788,17.8215758 6.51466667,18.4307879 5.11466667,19.2410909 C4.76509091,19.4438788 3.96327273,21.2655758 3.59078788,22.286303 C1.87854545,20.1184242 0.848484848,17.3905455 0.848484848,14.4208485 C0.848484848,7.4030303 6.55793939,1.69357576 13.5757576,1.69357576 L13.5757576,1.69357576 Z M13.5757576,27.1481212 C9.85430303,27.1481212 6.51127273,25.5326061 4.18218182,22.9778182 C4.64884848,21.8527273 5.38363636,20.2236364 5.61272727,19.9326061 C6.81587879,19.2444848 8.11406061,18.7150303 9.47672727,18.3552727 C10.5712727,19.094303 12.038303,19.5117576 13.5757576,19.5117576 C15.1132121,19.5117576 16.5802424,19.094303 17.6747879,18.3552727 C19.0374545,18.7150303 20.3347879,19.2444848 21.5387879,19.9326061 C21.8077576,20.2745455 22.5747879,22.0631515 22.9370909,23.014303 C20.6088485,25.5478788 17.2793939,27.1481212 13.5757576,27.1481212 L13.5757576,27.1481212 Z" id="Shape"></path>
                            <path d="M13.5757576,16.1246061 C16.1534545,16.1246061 17.8317576,13.44 18.2424242,10.1852121 C18.6666667,6.82690909 16.5284848,4.24581818 13.5757576,4.24581818 C10.6764848,4.24581818 8.52048485,6.82690909 8.90909091,10.1852121 C9.28666667,13.4433939 10.9980606,16.1246061 13.5757576,16.1246061 L13.5757576,16.1246061 Z M10.8037576,6.32969697 C11.5139394,5.5329697 12.4981818,5.09430303 13.5757576,5.09430303 C14.6821818,5.09430303 15.6833939,5.53806061 16.3927273,6.34242424 C17.2276364,7.28933333 17.585697,8.61636364 17.4007273,10.078303 C17.0740606,12.6653333 15.7648485,15.2752727 13.5757576,15.2752727 C11.3493333,15.2752727 10.0511515,12.6695758 9.75163636,10.0867879 C9.58193939,8.61721212 9.95527273,7.28254545 10.8037576,6.32969697 L10.8037576,6.32969697 Z" id="Shape"></path>
                        </g>
                    </g>
                </g>
            </g>
        </g>
    </g>
</svg>