<?xml version="1.0" encoding="UTF-8" standalone="no"?>
<svg width="28px" height="28px" viewBox="0 0 28 28" version="1.1" xmlns="http://www.w3.org/2000/svg" xmlns:xlink="http://www.w3.org/1999/xlink">
    <!-- Generator: Sketch 40.1 (33804) - http://www.bohemiancoding.com/sketch -->
    <title>ni-refresh-line-32</title>
    <desc>Created with Sketch.</desc>
    <defs></defs>
    <g id="Navigation-Types" stroke="none" stroke-width="1" fill="none" fill-rule="evenodd">
        <g id="Banded-w/-Grid-Navigation-Alternate-Copy-2" transform="translate(-66.000000, -382.000000)" fill="#000000">
            <g id="Group-5" transform="translate(-3.000000, 88.000000)">
                <g id="ni-refresh-line-32" transform="translate(69.000000, 294.000000)">
                    <g id="Group">
                        <path d="M8,9 L1.678,9 L5.15,5.528 C10.03,0.648 17.971,0.649 22.851,5.528 C25.125,7.802 26.403,10.799 26.499,14 L27.499,14 C27.403,10.532 26.021,7.284 23.558,4.821 C18.287,-0.449 9.713,-0.449 4.443,4.821 L1,8.264 L1,2 L0,2 L0,10 L8,10 L8,9 L8,9 Z" id="Shape"></path>
                        <path d="M20,18 L20,19 L26.33,19 L22.851,22.479 C17.971,27.358 10.03,27.358 5.15,22.479 C2.873,20.203 1.595,17.203 1.502,14 L0.502,14 C0.596,17.47 1.978,20.721 4.443,23.187 C7.078,25.822 10.539,27.139 14.001,27.139 C17.463,27.139 20.923,25.822 23.559,23.187 L27,19.744 L27,26 L28,26 L28,18 L20,18 L20,18 Z" id="Shape"></path>
                    </g>
                </g>
            </g>
        </g>
    </g>
</svg>