<?xml version="1.0" encoding="UTF-8" standalone="no"?>
<svg width="39px" height="27px" viewBox="0 0 39 27" version="1.1" xmlns="http://www.w3.org/2000/svg" xmlns:xlink="http://www.w3.org/1999/xlink">
    <!-- Generator: Sketch 40.1 (33804) - http://www.bohemiancoding.com/sketch -->
    <title>ni-delivery-line-32</title>
    <desc>Created with Sketch.</desc>
    <defs></defs>
    <g id="Navigation-Types" stroke="none" stroke-width="1" fill="none" fill-rule="evenodd">
        <g id="Banded-w/-Grid-Navigation-Alternate-Copy-2" transform="translate(-221.000000, -253.000000)" fill="#000000">
            <g id="Group-5" transform="translate(-3.000000, 88.000000)">
                <g id="ni-delivery-line-32" transform="translate(224.000000, 165.000000)">
                    <g id="Layer_1">
                        <g id="Group">
                            <polygon id="Shape" points="13.3913043 0 13.3913043 3.65217391 4.86956522 3.65217391 0 12.313913 0 21.9106087 2.43478261 21.9130435 2.43478261 20.6956522 1.2173913 20.6956522 1.2173913 12.6377391 5.57565217 4.86956522 13.3913043 4.86956522 13.3913043 18.2608696 14.6086957 18.2608696 14.6086957 1.2173913 37.7391304 1.2173913 37.7391304 20.6956522 34.0869565 20.6956522 34.0869565 21.9130435 38.9565217 21.9130435 38.9565217 0"></polygon>
                            <path d="M29.2125217,19.6073043 C27.1928696,19.6073043 25.5554783,21.2446957 25.5554783,23.2643478 C25.5554783,25.284 27.1928696,26.9213913 29.2125217,26.9213913 C31.2321739,26.9213913 32.8695652,25.284 32.8695652,23.2643478 C32.8695652,21.2446957 31.2321739,19.6073043 29.2125217,19.6073043 L29.2125217,19.6073043 Z M29.2125217,25.7052174 C27.8673043,25.7052174 26.7728696,24.6107826 26.7728696,23.2655652 C26.7728696,21.9203478 27.8673043,20.825913 29.2125217,20.825913 C30.5577391,20.825913 31.6521739,21.9203478 31.6521739,23.2655652 C31.6521739,24.6107826 30.5577391,25.7052174 29.2125217,25.7052174 L29.2125217,25.7052174 Z" id="Shape"></path>
                            <path d="M7.30921739,19.6073043 C5.28956522,19.6073043 3.65217391,21.245913 3.65217391,23.2655652 C3.65217391,25.2852174 5.28956522,26.9226087 7.30921739,26.9226087 C9.32886957,26.9226087 10.9662609,25.2852174 10.9662609,23.2655652 C10.9662609,21.245913 9.33008696,19.6073043 7.30921739,19.6073043 L7.30921739,19.6073043 Z M7.30921739,25.7052174 C5.964,25.7052174 4.86956522,24.6107826 4.86956522,23.2655652 C4.86956522,21.9203478 5.964,20.825913 7.30921739,20.825913 C8.65443478,20.825913 9.74886957,21.9203478 9.74886957,23.2655652 C9.74886957,24.6107826 8.65565217,25.7052174 7.30921739,25.7052174 L7.30921739,25.7052174 Z" id="Shape"></path>
                            <polygon id="Shape" points="12.1726957 6.08695652 10.9565217 6.08695652 10.9565217 13.3913043 9.0013913 13.3913043 6.55565217 10.9565217 4.86956522 10.9565217 4.17321739 12.173913 6.08573913 12.173913 8.53026087 14.6086957 12.1726957 14.6086957 12.173913 14.6086957"></polygon>
                            <rect id="Rectangle-path" x="12.173913" y="20.6956522" width="12.173913" height="1.2173913"></rect>
                        </g>
                    </g>
                </g>
            </g>
        </g>
    </g>
</svg>