<?xml version="1.0" encoding="UTF-8" standalone="no"?>
<svg width="32px" height="28px" viewBox="0 0 32 28" version="1.1" xmlns="http://www.w3.org/2000/svg" xmlns:xlink="http://www.w3.org/1999/xlink">
    <!-- Generator: Sketch 40.1 (33804) - http://www.bohemiancoding.com/sketch -->
    <title>ni-gift-card-line-32</title>
    <desc>Created with Sketch.</desc>
    <defs></defs>
    <g id="Navigation-Types" stroke="none" stroke-width="1" fill="none" fill-rule="evenodd">
        <g id="Banded-w/-Grid-Navigation-Alternate-Copy-2" transform="translate(-225.000000, -382.000000)" fill="#000000">
            <g id="Group-5" transform="translate(-3.000000, 88.000000)">
                <g id="Group-4-Copy-2" transform="translate(28.000000, 294.000000)">
                    <g id="Group-3" transform="translate(151.000000, 0.000000)">
                        <g id="ni-gift-card-line-32" transform="translate(49.000000, 0.000000)">
                            <g id="Group">
                                <path d="M30,9 L28,9 L28,2 C28,0.895 27.105,0 26,0 L2,0 C0.896,0 0,0.895 0,2 L0,17 C0,18.104 0.895,19 2,19 L4,19 L4,26 C4,27.104 4.895,28 6,28 L30,28 C31.105,28 32,27.104 32,26 L32,11 C32,9.895 31.105,9 30,9 L30,9 Z M1,17 L1,2 C1,1.449 1.449,1 2,1 C27.39,1 27,0.6 27,2 L27,17 C27,18.177 25.735,18 24.614,18 C0.684,18 1,18.378 1,17 L1,17 Z M31,26 C31,26.551 30.551,27 30,27 C4.61,27 5,27.4 5,26 L5,19 L31,19 L31,26 L31,26 Z M31,18 L27.723,18 C28.123,17.313 28,16.79 28,15 L31,15 L31,18 L31,18 Z M31,14 L28,14 L28,10 C31.465,10 31,9.648 31,14 L31,14 Z" id="Shape"></path>
                                <rect id="Rectangle-path" x="7" y="23" width="4" height="1"></rect>
                                <rect id="Rectangle-path" x="13" y="23" width="8" height="1"></rect>
                                <path d="M7.922,11.866 C7.922,11.926 7.922,11.512 7.922,10.089 L7.922,9.49 C7.922,9.115 7.928,8.966 7.891,8.623 C7.807,7.986 7.559,7.476 7,7.154 C6.655,6.949 6.212,6.844 5.685,6.844 C4.725,6.844 4.127,7.191 3.78,7.511 C3.783,7.262 3.782,7.357 3.785,7.095 L3,7.095 L3,12.458 L3.783,12.458 C3.783,12.21 3.782,9.462 3.785,9.215 C3.753,8.36 4.418,7.589 5.706,7.584 C6.776,7.604 7.133,8.171 7.133,9.143 L7.133,12.458 L7.152,12.458 L7.922,12.458 C7.922,12.244 7.922,12.047 7.922,11.866 L7.922,11.866 Z" id="Shape"></path>
                                <path d="M11.474,12.573 C12.652,12.573 13.613,11.968 14.044,10.953 L14.169,10.66 L13.338,10.66 C12.965,11.419 12.485,11.832 11.474,11.832 C10.422,11.832 9.678,11.138 9.553,10.054 L14.218,10.054 L14.218,9.714 C14.218,8.024 13.089,6.844 11.474,6.844 C9.836,6.844 8.736,8 8.736,9.721 C8.736,11.412 9.866,12.573 11.474,12.573 L11.474,12.573 Z M11.474,7.584 C12.505,7.584 13.265,8.274 13.394,9.314 L9.562,9.314 C9.716,8.228 10.424,7.584 11.474,7.584 L11.474,7.584 Z" id="Shape"></path>
                                <path d="M15.682,12.458 C16.128,11.926 15.634,12.515 17.51,10.276 C17.571,10.349 19.244,12.345 19.339,12.458 L20.35,12.458 C19.963,11.999 18.892,10.729 18.008,9.681 C18.87,8.651 19.913,7.405 20.288,6.958 L19.299,6.958 C19.189,7.088 17.602,8.974 17.509,9.085 C17.317,8.857 15.903,7.178 15.726,6.968 L14.738,6.968 C15.257,7.587 16.571,9.153 17.01,9.677 C16.933,9.768 15.105,11.927 14.659,12.455 C15.027,12.46 15.486,12.458 15.682,12.458 L15.682,12.458 Z" id="Shape"></path>
                                <path d="M23.34,12.573 C24.128,12.573 24.564,12.354 25.097,12 C24.955,11.828 24.942,11.812 24.626,11.428 C24.235,11.679 23.933,11.833 23.34,11.833 C22.248,11.833 21.889,11.253 21.889,10.274 L21.889,7.698 L24.581,7.698 L24.581,6.958 L21.889,6.958 L21.889,6.459 L21.101,6.459 L21.101,10.273 C21.1,11.852 21.902,12.573 23.34,12.573 L23.34,12.573 Z" id="Shape"></path>
                            </g>
                        </g>
                    </g>
                </g>
            </g>
        </g>
    </g>
</svg>