<?xml version="1.0" encoding="UTF-8" standalone="no"?>
<svg width="21px" height="28px" viewBox="0 0 21 28" version="1.1" xmlns="http://www.w3.org/2000/svg" xmlns:xlink="http://www.w3.org/1999/xlink">
    <!-- Generator: Sketch 40.1 (33804) - http://www.bohemiancoding.com/sketch -->
    <title>Group 2</title>
    <desc>Created with Sketch.</desc>
    <defs></defs>
    <g id="Navigation-Types" stroke="none" stroke-width="1" fill="none" fill-rule="evenodd">
        <g id="Banded-w/-Grid-Navigation-Alternate-Copy-2" transform="translate(-229.000000, -124.000000)">
            <g id="Group-5" transform="translate(-3.000000, 88.000000)">
                <g id="Group-4">
                    <g id="Group-2" transform="translate(232.000000, 36.000000)">
                        <g id="ni-location-line-32">
                            <g id="Layer_1">
                                <g id="Group">
                                    <path d="M10.513125,0 L10.5,0 L10.488625,0 L10.488625,0.000875 C4.7005,0.006125 0.007,4.696125 4.30205855e-13,10.486875 C-0.002625,12.649875 0.650125,14.660625 1.770125,16.33275 L10.511375,28 L19.221125,16.34675 C20.342,14.679 20.99825,12.672625 21.000875,10.51225 C21.007,4.713625 16.31175,0.007 10.513125,0 L10.513125,0 Z M18.50625,15.841 L10.5105,26.539625 L2.484125,15.827875 C1.428875,14.244125 0.872375,12.397875 0.875,10.488625 C0.881125,5.193125 5.194875,0.881125 10.5,0.875 L10.51225,0.875 C15.819125,0.881125 20.131125,5.2045 20.125,10.511375 C20.122375,12.418 19.56325,14.26075 18.50625,15.841 L18.50625,15.841 Z" id="Shape" fill="#000000"></path>
                                    <polyline id="Path-202" stroke="#000000" points="5.83703613 11.1166585 9.24788411 14.6132406 16.3176676 7.87613932"></polyline>
                                </g>
                            </g>
                        </g>
                    </g>
                </g>
            </g>
        </g>
    </g>
</svg>