<?xml version="1.0" encoding="UTF-8" standalone="no"?>
<svg width="21px" height="18px" viewBox="0 0 21 18" version="1.1" xmlns="http://www.w3.org/2000/svg" xmlns:xlink="http://www.w3.org/1999/xlink">
    <!-- Generator: Sketch 40.1 (33804) - http://www.bohemiancoding.com/sketch -->
    <title>Payments Icon</title>
    <desc>Created with Sketch.</desc>
    <defs>
        <polygon id="path-1" points="0 0 20.57175 0 20.57175 18 0 18"></polygon>
    </defs>
    <g id="Account-Summary" stroke="none" stroke-width="1" fill="none" fill-rule="evenodd">
        <g transform="translate(-16.000000, -532.000000)" id="Payments-Due">
            <g transform="translate(0.000000, 516.000000)">
                <g id="Group-4">
                    <g id="Title-Bar" transform="translate(16.000000, 1.000000)">
                        <g id="Payments-Icon" transform="translate(0.000000, 15.000000)">
                            <polygon id="Fill-1" fill="#000000" points="1.92825 9 4.5 9 4.5 8.3565 1.92825 8.3565"></polygon>
                            <polygon id="Fill-2" fill="#000000" points="5.7855 9 8.35725 9 8.35725 8.3565 5.7855 8.3565"></polygon>
                            <polygon id="Fill-3" fill="#000000" points="9.64275 9 12.21375 9 12.21375 8.3565 9.64275 8.3565"></polygon>
                            <polygon id="Fill-4" fill="#000000" points="13.5 9 16.07175 9 16.07175 8.3565 13.5 8.3565"></polygon>
                            <g id="Group-11">
                                <path d="M19.92855,9 L18.0003,9 L18.0003,6.42825 L19.2858,6.42825 C19.6398,6.42825 19.92855,6.717 19.92855,7.07175 L19.92855,9 Z M19.92855,11.57175 L17.8218,11.57175 C17.93205,11.382 18.0003,11.16375 18.0003,10.92825 L18.0003,9.64275 L19.92855,9.64275 L19.92855,11.57175 Z M19.92855,16.7145 C19.92855,17.0685 19.6398,17.35725 19.2858,17.35725 L3.8568,17.35725 C3.5028,17.35725 3.21405,17.0685 3.21405,16.7145 L3.21405,12.2145 L16.71405,12.2145 L19.92855,12.2145 L19.92855,16.7145 Z M1.2858,11.57175 C0.9318,11.57175 0.64305,11.283 0.64305,10.92825 L0.64305,1.2855 C0.64305,0.9315 0.9318,0.64275 1.2858,0.64275 L16.71405,0.64275 C17.0688,0.64275 17.3568,0.9315 17.3568,1.2855 L17.3568,10.92825 C17.3568,11.283 17.0688,11.57175 16.71405,11.57175 L1.2858,11.57175 Z M19.2858,5.7855 L18.0003,5.7855 L18.0003,1.2855 C18.0003,0.57525 17.4243,0 16.71405,0 L1.2858,0 C0.57555,0 0.0003,0.57525 0.0003,1.2855 L0.0003,10.92825 C0.0003,11.63925 0.57555,12.2145 1.2858,12.2145 L2.5713,12.2145 L2.5713,16.7145 C2.5713,17.42475 3.14655,18 3.8568,18 L19.2858,18 C19.99605,18 20.5713,17.42475 20.5713,16.7145 L20.5713,7.07175 C20.5713,6.36075 19.99605,5.7855 19.2858,5.7855 L19.2858,5.7855 Z" id="Fill-5" fill="#000000"></path>
                                <mask id="mask-2" fill="white">
                                    <use xlink:href="#path-1"></use>
                                </mask>
                                <g id="Clip-8"></g>
                                <polygon id="Fill-7" fill="#000000" mask="url(#mask-2)" points="4.5 14.7855 7.07175 14.7855 7.07175 15.42825 4.5 15.42825"></polygon>
                                <polygon id="Fill-9" fill="#000000" mask="url(#mask-2)" points="8.35725 14.7855 13.5 14.7855 13.5 15.42825 8.35725 15.42825"></polygon>
                                <path d="M2.57175,4.5 L3.85725,4.5 L3.85725,5.7855 L2.57175,5.7855 L2.57175,4.5 Z M1.92825,6.42825 L4.5,6.42825 L4.5,3.8565 L1.92825,3.8565 L1.92825,6.42825 Z" id="Fill-10" fill="#000000" mask="url(#mask-2)"></path>
                            </g>
                        </g>
                    </g>
                </g>
            </g>
        </g>
    </g>
</svg>