<?xml version="1.0" encoding="UTF-8" standalone="no"?>
<svg width="18px" height="18px" viewBox="0 0 18 18" version="1.1" xmlns="http://www.w3.org/2000/svg" xmlns:xlink="http://www.w3.org/1999/xlink">
    <!-- Generator: Sketch 40.1 (33804) - http://www.bohemiancoding.com/sketch -->
    <title>Recent Activity Icon</title>
    <desc>Created with Sketch.</desc>
    <defs>
        <polyline id="path-1" points="0 0 18 0 18 18 0 18"></polyline>
    </defs>
    <g id="Account-Summary" stroke="none" stroke-width="1" fill="none" fill-rule="evenodd">
        <g transform="translate(-16.000000, -824.000000)" id="Recent-Activity">
            <g transform="translate(0.000000, 807.000000)">
                <g id="Recent-Activity-Icon" transform="translate(16.000000, 17.000000)">
                    <g id="Group-3">
                        <mask id="mask-2" fill="white">
                            <use xlink:href="#path-1"></use>
                        </mask>
                        <g id="Clip-2"></g>
                        <path d="M9,17.3976 C4.362,17.3976 0.6024,13.638 0.6024,9 C0.6024,4.362 4.362,0.6024 9,0.6024 C13.638,0.6024 17.3976,4.362 17.3976,9 C17.3976,13.638 13.638,17.3976 9,17.3976 M9,0 C4.0296,0 0,4.0296 0,9 C0,13.9704 4.0296,18 9,18 C13.9704,18 18,13.9704 18,9 C18,4.0296 13.9704,0 9,0" id="Fill-1" fill="#000000" mask="url(#mask-2)"></path>
                    </g>
                    <polygon id="Fill-4" fill="#000000" points="9 3 8.4 3 8.4 9.2484 11.4702 12.3186 11.8944 11.8944 9 9"></polygon>
                </g>
            </g>
        </g>
    </g>
</svg>