<?xml version="1.0" encoding="UTF-8" standalone="no"?>
<svg width="9px" height="28px" viewBox="0 0 9 28" version="1.1" xmlns="http://www.w3.org/2000/svg" xmlns:xlink="http://www.w3.org/1999/xlink">
    <!-- Generator: Sketch 40.1 (33804) - http://www.bohemiancoding.com/sketch -->
    <title>ni-phone-line-32</title>
    <desc>Created with Sketch.</desc>
    <defs></defs>
    <g id="Navigation-Types" stroke="none" stroke-width="1" fill="none" fill-rule="evenodd">
        <g id="Banded-w/-Grid-Navigation-Alternate-Copy-2" transform="translate(-76.000000, -511.000000)" fill="#000000">
            <g id="Group-5" transform="translate(-3.000000, 88.000000)">
                <g id="ni-phone-line-32" transform="translate(79.000000, 423.000000)">
                    <path d="M7.875,8.74825 C8.358,8.74825 8.75,8.35625 8.75,7.87325 L8.75,0.875 C8.75,0.392 8.358,0 7.875,0 L4.344375,0 C3.766,0 3.22875,0.2835 2.900625,0.7595 C1.9005,2.207625 0,7.55475 0,13.99825 C0,20.59575 1.992375,25.209625 2.970625,27.076 C3.27075,27.64825 3.8675,28 4.514125,28 L7.875,28 C8.358,28 8.75,27.608 8.75,27.125 L8.75,20.12675 C8.75,19.64375 8.358,19.25175 7.875,19.25175 L4.375,19.25175 L4.375,8.74825 L7.875,8.74825 L7.875,8.74825 Z M7.875,20.125 L7.875,27.125 L4.514125,27.125 C4.18775,27.125 3.892875,26.950875 3.745875,26.67 C2.883125,25.02325 0.875,20.4925 0.875,13.99825 C0.875,7.802375 2.6635,2.643375 3.62075,1.257375 C3.786125,1.0185 4.0565,0.875 4.34525,0.875 L7.875,0.875 L7.875,7.875 L3.5,7.875 L3.5,20.125 L7.875,20.125 L7.875,20.125 Z" id="Shape"></path>
                </g>
            </g>
        </g>
    </g>
</svg>