<?xml version="1.0" encoding="UTF-8" standalone="no"?>
<svg width="16px" height="16px" viewBox="0 0 16 16" version="1.1" xmlns="http://www.w3.org/2000/svg" xmlns:xlink="http://www.w3.org/1999/xlink">
    <!-- Generator: Sketch 40.1 (33804) - http://www.bohemiancoding.com/sketch -->
    <title>Returns Icon</title>
    <desc>Created with Sketch.</desc>
    <defs></defs>
    <g id="Symbols" stroke="none" stroke-width="1" fill="none" fill-rule="evenodd">
        <g id="Order-Status---Returned" transform="translate(-262.000000, -10.000000)" fill="#66AFE9">
            <g id="Group-7">
                <g>
                    <g id="Returns-Icon" transform="translate(262.000000, 10.000000)">
                        <g id="Group-3" transform="translate(12.500000, 5.000000)">
                            <path d="M2.354,0.485 L1.988,0.8335 C2.6425,1.5535 2.988,2.371 2.988,3.1965 C2.988,4.5745 2.0335,5.889 0.369,6.804 L0.6055,7.2545 C2.367,6.2865 3.488,4.8275 3.488,3.196 C3.488,2.205 3.074,1.2775 2.354,0.485" id="Fill-1"></path>
                        </g>
                        <path d="M8.0215,11.0315 L10.606,12.963 L7.994,12.963 C3.8615,12.963 0.5,10.8245 0.5,8.1965 C0.5,7.3685 0.8475,6.549 1.5055,5.8275 L1.14,5.4785 C0.4165,6.2725 0,7.2025 0,8.1965 C0,11.1115 3.579,13.4745 7.994,13.4745 L10.5455,13.4745 L8.012,15.372 L8.0105,16 L11.7525,13.1975 L8.0235,10.41 L8.0215,11.0315 Z" id="Fill-4"></path>
                        <path d="M11.494,4.2645 L10.8555,4.2645 C10.6825,3.967 10.3635,3.7645 9.994,3.7645 C9.625,3.7645 9.306,3.967 9.1325,4.2645 L7.494,4.2645 L7.494,0.7645 L11.494,0.7645 L11.494,4.2645 Z M10.494,5.2645 L9.494,5.2645 L9.494,4.2645 L10.494,4.2645 L10.494,5.2645 Z M6.994,4.2645 L6.8555,4.2645 C6.682,3.967 6.363,3.7645 5.994,3.7645 C5.625,3.7645 5.306,3.967 5.1325,4.2645 L4.494,4.2645 L4.494,2.9715 L5.701,1.7645 L6.994,1.7645 L6.994,4.2645 Z M6.494,5.2645 L5.494,5.2645 L5.494,4.2645 L6.494,4.2645 L6.494,5.2645 Z M6.994,0.2645 L6.994,1.2645 L5.494,1.2645 L3.994,2.7645 L3.994,4.2645 L3.994,4.7645 L4.994,4.7645 C4.994,5.317 5.4415,5.7645 5.994,5.7645 C6.5465,5.7645 6.994,5.317 6.994,4.7645 L8.994,4.7645 C8.994,5.317 9.4415,5.7645 9.994,5.7645 C10.5465,5.7645 10.994,5.316 10.994,4.7635 L11.994,4.7645 L11.994,0.2645 L6.994,0.2645 Z" id="Fill-6"></path>
                        <polygon id="Fill-8" points="5.494 3.2645 6.494 3.2645 6.494 2.2645 5.994 2.2645 5.994 2.7645 5.494 2.7645"></polygon>
                    </g>
                </g>
            </g>
        </g>
    </g>
</svg>