<?xml version="1.0" encoding="UTF-8" standalone="no"?>
<svg width="32px" height="28px" viewBox="0 0 32 28" version="1.1" xmlns="http://www.w3.org/2000/svg" xmlns:xlink="http://www.w3.org/1999/xlink">
    <!-- Generator: Sketch 40.1 (33804) - http://www.bohemiancoding.com/sketch -->
    <title>ni-store-line-32</title>
    <desc>Created with Sketch.</desc>
    <defs></defs>
    <g id="Navigation-Types" stroke="none" stroke-width="1" fill="none" fill-rule="evenodd">
        <g id="Banded-w/-Grid-Navigation-Alternate-Copy-2" transform="translate(-226.000000, -511.000000)" fill="#000000">
            <g id="Group-5" transform="translate(-3.000000, 88.000000)">
                <g id="ni-store-line-32" transform="translate(229.000000, 423.000000)">
                    <g id="Group">
                        <path d="M0,0 L0,28 L8,28 L8,19 L15,19 L15,28 L16,28 L16,19 L24,19 L24,28 L32,28 L32,0 L0,0 L0,0 Z M7,27 L1,27 L1,19 L7,19 L7,27 L7,27 Z M24,18 L8,18 L8,17 L24,17 L24,18 L24,18 Z M31,27 L25,27 L25,19 L31,19 L31,27 L31,27 Z M31,18 L25,18 L25,16 L7,16 L7,18 L1,18 L1,1 L31,1 L31,18 L31,18 Z" id="Shape"></path>
                        <rect id="Rectangle-path" x="10" y="27" width="3" height="1"></rect>
                        <rect id="Rectangle-path" x="10" y="24" width="3" height="1"></rect>
                        <rect id="Rectangle-path" x="10" y="21" width="3" height="1"></rect>
                        <path d="M25.92,12.001 C26.568,12.001 27.158,11.834 27.636,11.516 L27.394,11.222 C26.882,11.551 26.316,11.622 25.92,11.622 C25.304,11.622 24.805,11.457 24.479,11.146 C24.101,10.79 23.947,10.32 23.947,9.522 L23.947,6.215 L27.142,6.215 L27.142,5.837 L23.947,5.837 L23.947,5.245 L23.512,5.245 L23.512,9.522 C23.512,10.411 23.698,10.991 24.117,11.402 C24.521,11.799 25.127,12.001 25.92,12.001 L25.92,12.001 Z" id="Shape"></path>
                        <path d="M13.173,12.001 C14.479,12.001 15.521,11.343 15.994,10.231 L15.542,10.231 C15.082,11.167 14.307,11.622 13.174,11.622 C11.741,11.622 10.743,10.65 10.632,9.145 L10.622,9.011 L16.181,9.011 L16.181,8.857 C16.181,6.998 14.944,5.7 13.174,5.7 C11.38,5.7 10.174,6.972 10.174,8.864 C10.174,9.782 10.465,10.568 11.016,11.138 C11.56,11.703 12.306,12.001 13.173,12.001 L13.173,12.001 Z M10.638,8.496 C10.791,7.006 11.762,6.08 13.173,6.08 C14.58,6.08 15.601,7.052 15.715,8.499 L15.726,8.633 L10.624,8.633 L10.638,8.496 L10.638,8.496 Z" id="Shape"></path>
                        <polygon id="Shape" points="19.583 9.136 21.871 11.865 22.417 11.865 19.848 8.82 22.346 5.837 21.824 5.837 19.583 8.499 17.351 5.849 16.831 5.849 19.318 8.814 16.769 11.843 16.769 11.865 17.297 11.865"></polygon>
                        <path d="M4.069,8.464 L4.071,8.264 C4.071,8.264 4.01,7.109 5.068,6.458 C5.078,6.452 5.088,6.445 5.098,6.439 C5.098,6.439 5.138,6.417 5.157,6.405 C5.511,6.21 5.98,6.082 6.6,6.08 L6.608,6.08 C7.204,6.091 7.687,6.255 8.006,6.556 C8.389,6.912 8.545,7.382 8.545,8.18 L8.545,11.486 L8.545,11.496 L8.545,11.502 L8.545,11.865 L8.681,11.865 L8.98,11.865 L8.98,8.592 L8.98,8.587 L8.98,8.587 L8.98,8.241 L8.98,8.192 C8.98,8.03 8.974,7.879 8.961,7.737 C8.96,7.727 8.959,7.717 8.959,7.708 C8.955,7.669 8.951,7.631 8.946,7.594 C8.945,7.588 8.944,7.582 8.944,7.576 C8.871,7.021 8.689,6.618 8.376,6.311 C8.269,6.205 8.147,6.114 8.012,6.037 C7.669,5.832 7.205,5.702 6.577,5.702 C4.645,5.702 4.057,6.972 4.057,6.972 C4.062,6.627 4.069,6 4.069,6 L3.64,6 L3.64,11.865 L4.069,11.865 L4.069,8.464 L4.069,8.464 Z" id="Shape"></path>
                    </g>
                </g>
            </g>
        </g>
    </g>
</svg>