<?xml version="1.0" encoding="UTF-8" standalone="no"?>
<svg width="28px" height="28px" viewBox="0 0 28 28" version="1.1" xmlns="http://www.w3.org/2000/svg" xmlns:xlink="http://www.w3.org/1999/xlink">
    <!-- Generator: Sketch 40.1 (33804) - http://www.bohemiancoding.com/sketch -->
    <title>ni-edit-line-32</title>
    <desc>Created with Sketch.</desc>
    <defs></defs>
    <g id="Navigation-Types" stroke="none" stroke-width="1" fill="none" fill-rule="evenodd">
        <g id="Banded-w/-Grid-Navigation-Alternate-Copy-2" transform="translate(-64.000000, -253.000000)" fill="#000000">
            <g id="Group-5" transform="translate(-3.000000, 88.000000)">
                <g id="ni-edit-line-32" transform="translate(67.000000, 165.000000)">
                    <g id="Group">
                        <path d="M21.322,0.585846154 L17.0681538,4.83969231 L23.1603077,10.9318462 L27.4141538,6.678 L21.322,0.585846154 L21.322,0.585846154 Z M18.5909231,4.83969231 L21.322,2.10861538 L25.8913846,6.678 L23.1603077,9.40907692 L18.5909231,4.83969231 L18.5909231,4.83969231 Z" id="Shape"></path>
                        <path d="M0,21.9078462 L0,28 L6.09215385,28 L21.6375385,12.4546154 L15.5453846,6.36246154 L0,21.9078462 L0,21.9078462 Z M1.07692308,26.9230769 L1.07692308,22.3536923 C1.15123077,22.2793846 1.25569231,22.176 1.34938462,22.0812308 L5.91876923,26.6506154 L5.64630769,26.9230769 L1.07692308,26.9230769 L1.07692308,26.9230769 Z M6.68015385,25.8892308 L2.11076923,21.3198462 C5.27692308,18.1547692 12.9381538,10.4935385 15.5453846,7.88523077 L20.1147692,12.4546154 L6.68015385,25.8892308 L6.68015385,25.8892308 Z" id="Shape"></path>
                    </g>
                </g>
            </g>
        </g>
    </g>
</svg>